<?xml version="1.0" standalone="no"?><!-- Generator: Gravit.io --><svg xmlns="http://www.w3.org/2000/svg" xmlns:xlink="http://www.w3.org/1999/xlink" style="isolation:isolate" viewBox="-43.747 81.73 1336.709 777.898" width="1336.709" height="777.898"><g><path d=" M -35.34 296.179 Q 154.993 90.86 308 139.505 C 461.007 188.15 417.17 158.908 550 112 C 682.83 65.092 722.851 74.743 854 126.863 C 985.149 178.983 1029.7 256.073 1102 235.225 Q 1174.3 214.377 1287.918 120.709 L 1292.962 829.538 L -43.747 824.326 L -35.34 296.179 Z " fill="rgb(13,255,0)" fill-opacity="0.58"/><path d=" M -35.34 310.627 Q 154.993 105.308 308 153.953 C 461.007 202.599 417.17 184.908 550 138 C 682.83 91.092 722.851 89.191 854 141.311 C 985.149 193.431 1029.7 270.521 1102 249.673 Q 1174.3 228.825 1287.918 135.157 L 1292.962 843.987 L -43.747 838.775 L -35.34 310.627 Z " fill="rgb(11,176,3)" fill-opacity="0.58"/><path d=" M -35.34 326.269 Q 154.993 120.95 308 169.596 C 461.007 218.241 415.17 210.908 548 164 C 680.83 117.092 722.851 104.833 854 156.953 C 985.149 209.073 1029.7 286.163 1102 265.315 Q 1174.3 244.467 1287.918 150.799 L 1292.962 859.629 L -43.747 854.417 L -35.34 326.269 Z " fill="rgb(17,174,8)" fill-opacity="0.38"/></g></svg>