<?xml version="1.0" standalone="no"?><!-- Generator: Gravit.io --><svg xmlns="http://www.w3.org/2000/svg" xmlns:xlink="http://www.w3.org/1999/xlink" style="isolation:isolate" viewBox="463.612 2498 510.388 317.361" width="510.388" height="317.361"><g><g><rect x="463.612" y="2593.516" width="159.338" height="221.404" transform="matrix(1,0,0,1,0,0)" fill="rgb(121,121,121)"/><g><path d=" M 493.538 2628.65 L 493.538 2604.961 L 525.986 2604.961 L 493.538 2628.65 L 493.538 2628.65 Z " fill="rgb(180,180,180)"/><path d=" M 493.538 2628.65 L 493.538 2628.73 L 525.986 2628.73 L 525.986 2605.005 L 493.538 2628.65 L 493.538 2628.65 Z " fill="rgb(162,160,160)"/><path d=" M 525.986 2605.005 L 525.986 2604.961 L 493.538 2628.65 L 525.986 2605.005 Z " fill="rgb(180,180,180)"/></g><g><path d=" M 493.538 2661.663 L 493.538 2637.973 L 525.986 2637.973 L 493.538 2661.663 L 493.538 2661.663 Z " fill="rgb(180,180,180)"/><path d=" M 493.538 2661.663 L 493.538 2661.742 L 525.986 2661.742 L 525.986 2638.017 L 493.538 2661.663 L 493.538 2661.663 Z " fill="rgb(162,160,160)"/><path d=" M 525.986 2638.017 L 525.986 2637.973 L 493.538 2661.663 L 525.986 2638.017 Z " fill="rgb(180,180,180)"/></g><g><path d=" M 493.538 2697.316 L 493.538 2673.627 L 525.986 2673.627 L 493.538 2697.316 L 493.538 2697.316 Z " fill="rgb(180,180,180)"/><path d=" M 493.538 2697.316 L 493.538 2697.396 L 525.986 2697.396 L 525.986 2673.671 L 493.538 2697.316 L 493.538 2697.316 Z " fill="rgb(162,160,160)"/><path d=" M 525.986 2673.671 L 525.986 2673.627 L 493.538 2697.316 L 525.986 2673.671 Z " fill="rgb(180,180,180)"/></g><g><path d=" M 493.538 2730.329 L 493.538 2706.639 L 525.986 2706.639 L 493.538 2730.329 L 493.538 2730.329 Z " fill="rgb(180,180,180)"/><path d=" M 493.538 2730.329 L 493.538 2730.408 L 525.986 2730.408 L 525.986 2706.684 L 493.538 2730.329 L 493.538 2730.329 Z " fill="rgb(162,160,160)"/><path d=" M 525.986 2706.684 L 525.986 2706.639 L 493.538 2730.329 L 525.986 2706.684 Z " fill="rgb(180,180,180)"/></g><g><path d=" M 493.538 2762.021 L 493.538 2738.331 L 525.986 2738.331 L 493.538 2762.021 L 493.538 2762.021 Z " fill="rgb(180,180,180)"/><path d=" M 493.538 2762.021 L 493.538 2762.1 L 525.986 2762.1 L 525.986 2738.376 L 493.538 2762.021 L 493.538 2762.021 Z " fill="rgb(162,160,160)"/><path d=" M 525.986 2738.376 L 525.986 2738.331 L 493.538 2762.021 L 525.986 2738.376 Z " fill="rgb(180,180,180)"/></g><g><path d=" M 569.538 2628.65 L 569.538 2604.961 L 601.986 2604.961 L 569.538 2628.65 L 569.538 2628.65 Z " fill="rgb(180,180,180)"/><path d=" M 569.538 2628.65 L 569.538 2628.73 L 601.986 2628.73 L 601.986 2605.005 L 569.538 2628.65 L 569.538 2628.65 Z " fill="rgb(162,160,160)"/><path d=" M 601.986 2605.005 L 601.986 2604.961 L 569.538 2628.65 L 601.986 2605.005 Z " fill="rgb(180,180,180)"/></g><g><path d=" M 569.538 2661.663 L 569.538 2637.973 L 601.986 2637.973 L 569.538 2661.663 L 569.538 2661.663 Z " fill="rgb(180,180,180)"/><path d=" M 569.538 2661.663 L 569.538 2661.742 L 601.986 2661.742 L 601.986 2638.017 L 569.538 2661.663 L 569.538 2661.663 Z " fill="rgb(162,160,160)"/><path d=" M 601.986 2638.017 L 601.986 2637.973 L 569.538 2661.663 L 601.986 2638.017 Z " fill="rgb(180,180,180)"/></g><g><path d=" M 569.538 2697.316 L 569.538 2673.627 L 601.986 2673.627 L 569.538 2697.316 L 569.538 2697.316 Z " fill="rgb(180,180,180)"/><path d=" M 569.538 2697.316 L 569.538 2697.396 L 601.986 2697.396 L 601.986 2673.671 L 569.538 2697.316 L 569.538 2697.316 Z " fill="rgb(162,160,160)"/><path d=" M 601.986 2673.671 L 601.986 2673.627 L 569.538 2697.316 L 601.986 2673.671 Z " fill="rgb(180,180,180)"/></g><g><path d=" M 569.538 2730.329 L 569.538 2706.639 L 601.986 2706.639 L 569.538 2730.329 L 569.538 2730.329 Z " fill="rgb(180,180,180)"/><path d=" M 569.538 2730.329 L 569.538 2730.408 L 601.986 2730.408 L 601.986 2706.684 L 569.538 2730.329 L 569.538 2730.329 Z " fill="rgb(162,160,160)"/><path d=" M 601.986 2706.684 L 601.986 2706.639 L 569.538 2730.329 L 601.986 2706.684 Z " fill="rgb(180,180,180)"/></g><g><path d=" M 569.538 2762.021 L 569.538 2738.331 L 601.986 2738.331 L 569.538 2762.021 L 569.538 2762.021 Z " fill="rgb(180,180,180)"/><path d=" M 569.538 2762.021 L 569.538 2762.1 L 601.986 2762.1 L 601.986 2738.376 L 569.538 2762.021 L 569.538 2762.021 Z " fill="rgb(162,160,160)"/><path d=" M 601.986 2738.376 L 601.986 2738.331 L 569.538 2762.021 L 601.986 2738.376 Z " fill="rgb(180,180,180)"/></g><rect x="530.523" y="2778.386" width="32.321" height="36.094" transform="matrix(1,0,0,1,0,0)" fill="rgb(180,180,180)"/></g><g><rect x="622.95" y="2498" width="159.338" height="317.361" transform="matrix(1,0,0,1,0,0)" fill="rgb(142,136,136)"/><rect x="686.458" y="2778.827" width="32.321" height="36.094" transform="matrix(1,0,0,1,0,0)" fill="rgb(180,180,180)"/></g><g><path d=" M 652.985 2628.65 L 652.985 2604.961 L 685.433 2604.961 L 652.985 2628.65 L 652.985 2628.65 Z " fill="rgb(180,180,180)"/><path d=" M 652.985 2628.65 L 652.985 2628.73 L 685.433 2628.73 L 685.433 2605.005 L 652.985 2628.65 L 652.985 2628.65 Z " fill="rgb(162,160,160)"/><path d=" M 685.433 2605.005 L 685.433 2604.961 L 652.985 2628.65 L 685.433 2605.005 Z " fill="rgb(180,180,180)"/></g><g><path d=" M 652.985 2661.663 L 652.985 2637.973 L 685.433 2637.973 L 652.985 2661.663 L 652.985 2661.663 Z " fill="rgb(180,180,180)"/><path d=" M 652.985 2661.663 L 652.985 2661.742 L 685.433 2661.742 L 685.433 2638.017 L 652.985 2661.663 L 652.985 2661.663 Z " fill="rgb(162,160,160)"/><path d=" M 685.433 2638.017 L 685.433 2637.973 L 652.985 2661.663 L 685.433 2638.017 Z " fill="rgb(180,180,180)"/></g><g><path d=" M 652.985 2697.316 L 652.985 2673.627 L 685.433 2673.627 L 652.985 2697.316 L 652.985 2697.316 Z " fill="rgb(180,180,180)"/><path d=" M 652.985 2697.316 L 652.985 2697.396 L 685.433 2697.396 L 685.433 2673.671 L 652.985 2697.316 L 652.985 2697.316 Z " fill="rgb(162,160,160)"/><path d=" M 685.433 2673.671 L 685.433 2673.627 L 652.985 2697.316 L 685.433 2673.671 Z " fill="rgb(180,180,180)"/></g><g><path d=" M 652.985 2529.65 L 652.985 2505.961 L 685.433 2505.961 L 652.985 2529.65 L 652.985 2529.65 Z " fill="rgb(180,180,180)"/><path d=" M 652.985 2529.65 L 652.985 2529.73 L 685.433 2529.73 L 685.433 2506.005 L 652.985 2529.65 L 652.985 2529.65 Z " fill="rgb(162,160,160)"/><path d=" M 685.433 2506.005 L 685.433 2505.961 L 652.985 2529.65 L 685.433 2506.005 Z " fill="rgb(180,180,180)"/></g><g><path d=" M 652.985 2562.663 L 652.985 2538.973 L 685.433 2538.973 L 652.985 2562.663 L 652.985 2562.663 Z " fill="rgb(180,180,180)"/><path d=" M 652.985 2562.663 L 652.985 2562.742 L 685.433 2562.742 L 685.433 2539.017 L 652.985 2562.663 L 652.985 2562.663 Z " fill="rgb(162,160,160)"/><path d=" M 685.433 2539.017 L 685.433 2538.973 L 652.985 2562.663 L 685.433 2539.017 Z " fill="rgb(180,180,180)"/></g><g><path d=" M 652.985 2598.316 L 652.985 2574.627 L 685.433 2574.627 L 652.985 2598.316 L 652.985 2598.316 Z " fill="rgb(180,180,180)"/><path d=" M 652.985 2598.316 L 652.985 2598.396 L 685.433 2598.396 L 685.433 2574.671 L 652.985 2598.316 L 652.985 2598.316 Z " fill="rgb(162,160,160)"/><path d=" M 685.433 2574.671 L 685.433 2574.627 L 652.985 2598.316 L 685.433 2574.671 Z " fill="rgb(180,180,180)"/></g><g><path d=" M 652.985 2730.329 L 652.985 2706.639 L 685.433 2706.639 L 652.985 2730.329 L 652.985 2730.329 Z " fill="rgb(180,180,180)"/><path d=" M 652.985 2730.329 L 652.985 2730.408 L 685.433 2730.408 L 685.433 2706.684 L 652.985 2730.329 L 652.985 2730.329 Z " fill="rgb(162,160,160)"/><path d=" M 685.433 2706.684 L 685.433 2706.639 L 652.985 2730.329 L 685.433 2706.684 Z " fill="rgb(180,180,180)"/></g><g><path d=" M 652.985 2762.021 L 652.985 2738.331 L 685.433 2738.331 L 652.985 2762.021 L 652.985 2762.021 Z " fill="rgb(180,180,180)"/><path d=" M 652.985 2762.021 L 652.985 2762.1 L 685.433 2762.1 L 685.433 2738.376 L 652.985 2762.021 L 652.985 2762.021 Z " fill="rgb(162,160,160)"/><path d=" M 685.433 2738.376 L 685.433 2738.331 L 652.985 2762.021 L 685.433 2738.376 Z " fill="rgb(180,180,180)"/></g><g><path d=" M 719.985 2628.65 L 719.985 2604.961 L 752.433 2604.961 L 719.985 2628.65 L 719.985 2628.65 Z " fill="rgb(180,180,180)"/><path d=" M 719.985 2628.65 L 719.985 2628.73 L 752.433 2628.73 L 752.433 2605.005 L 719.985 2628.65 L 719.985 2628.65 Z " fill="rgb(162,160,160)"/><path d=" M 752.433 2605.005 L 752.433 2604.961 L 719.985 2628.65 L 752.433 2605.005 Z " fill="rgb(180,180,180)"/></g><g><path d=" M 719.985 2661.663 L 719.985 2637.973 L 752.433 2637.973 L 719.985 2661.663 L 719.985 2661.663 Z " fill="rgb(180,180,180)"/><path d=" M 719.985 2661.663 L 719.985 2661.742 L 752.433 2661.742 L 752.433 2638.017 L 719.985 2661.663 L 719.985 2661.663 Z " fill="rgb(162,160,160)"/><path d=" M 752.433 2638.017 L 752.433 2637.973 L 719.985 2661.663 L 752.433 2638.017 Z " fill="rgb(180,180,180)"/></g><g><path d=" M 719.985 2697.316 L 719.985 2673.627 L 752.433 2673.627 L 719.985 2697.316 L 719.985 2697.316 Z " fill="rgb(180,180,180)"/><path d=" M 719.985 2697.316 L 719.985 2697.396 L 752.433 2697.396 L 752.433 2673.671 L 719.985 2697.316 L 719.985 2697.316 Z " fill="rgb(162,160,160)"/><path d=" M 752.433 2673.671 L 752.433 2673.627 L 719.985 2697.316 L 752.433 2673.671 Z " fill="rgb(180,180,180)"/></g><g><path d=" M 719.985 2529.65 L 719.985 2505.961 L 752.433 2505.961 L 719.985 2529.65 L 719.985 2529.65 Z " fill="rgb(180,180,180)"/><path d=" M 719.985 2529.65 L 719.985 2529.73 L 752.433 2529.73 L 752.433 2506.005 L 719.985 2529.65 L 719.985 2529.65 Z " fill="rgb(162,160,160)"/><path d=" M 752.433 2506.005 L 752.433 2505.961 L 719.985 2529.65 L 752.433 2506.005 Z " fill="rgb(180,180,180)"/></g><g><path d=" M 719.985 2562.663 L 719.985 2538.973 L 752.433 2538.973 L 719.985 2562.663 L 719.985 2562.663 Z " fill="rgb(180,180,180)"/><path d=" M 719.985 2562.663 L 719.985 2562.742 L 752.433 2562.742 L 752.433 2539.017 L 719.985 2562.663 L 719.985 2562.663 Z " fill="rgb(162,160,160)"/><path d=" M 752.433 2539.017 L 752.433 2538.973 L 719.985 2562.663 L 752.433 2539.017 Z " fill="rgb(180,180,180)"/></g><g><path d=" M 719.985 2598.316 L 719.985 2574.627 L 752.433 2574.627 L 719.985 2598.316 L 719.985 2598.316 Z " fill="rgb(180,180,180)"/><path d=" M 719.985 2598.316 L 719.985 2598.396 L 752.433 2598.396 L 752.433 2574.671 L 719.985 2598.316 L 719.985 2598.316 Z " fill="rgb(162,160,160)"/><path d=" M 752.433 2574.671 L 752.433 2574.627 L 719.985 2598.316 L 752.433 2574.671 Z " fill="rgb(180,180,180)"/></g><g><path d=" M 719.985 2730.329 L 719.985 2706.639 L 752.433 2706.639 L 719.985 2730.329 L 719.985 2730.329 Z " fill="rgb(180,180,180)"/><path d=" M 719.985 2730.329 L 719.985 2730.408 L 752.433 2730.408 L 752.433 2706.684 L 719.985 2730.329 L 719.985 2730.329 Z " fill="rgb(162,160,160)"/><path d=" M 752.433 2706.684 L 752.433 2706.639 L 719.985 2730.329 L 752.433 2706.684 Z " fill="rgb(180,180,180)"/></g><g><path d=" M 719.985 2762.021 L 719.985 2738.331 L 752.433 2738.331 L 719.985 2762.021 L 719.985 2762.021 Z " fill="rgb(180,180,180)"/><path d=" M 719.985 2762.021 L 719.985 2762.1 L 752.433 2762.1 L 752.433 2738.376 L 719.985 2762.021 L 719.985 2762.021 Z " fill="rgb(162,160,160)"/><path d=" M 752.433 2738.376 L 752.433 2738.331 L 719.985 2762.021 L 752.433 2738.376 Z " fill="rgb(180,180,180)"/></g><g><path d=" M 858.525 2815.294 L 751.154 2815.294 L 751.154 2649.58 L 974 2649.58 L 974 2815.294 L 858.525 2815.294" fill="rgb(187,186,186)"/><g><path d=" M 862.792 2814.705 L 848.732 2814.705 L 848.732 2782.241 L 862.688 2782.241 L 862.792 2814.705 L 862.792 2814.705 Z " fill="rgb(187,185,185)"/><path d=" M 862.792 2814.705 L 877.39 2814.705 L 877.39 2782.241 L 862.688 2782.241 L 862.792 2814.705 L 862.792 2814.705 Z " fill="rgb(176,174,174)"/><ellipse vector-effect="non-scaling-stroke" cx="865.4046127592596" cy="2801.0625802849577" rx="1.2251674132105563" ry="1.3895007267437904" fill="rgb(132,128,128)"/><ellipse vector-effect="non-scaling-stroke" cx="860.2908705128164" cy="2801.0625802849577" rx="1.2251674132105563" ry="1.3895007267437904" fill="rgb(132,128,128)"/></g><g><rect x="779.638" y="2664.626" width="30.351" height="21.064" transform="matrix(1,0,0,1,0,0)" fill="rgb(255,255,255)" vector-effect="non-scaling-stroke" stroke-width="2" stroke="rgb(0,0,0)" stroke-linejoin="miter" stroke-linecap="square" stroke-miterlimit="3" style="mix-blend-mode:power;"/><rect x="779.638" y="2692.712" width="30.351" height="21.064" transform="matrix(1,0,0,1,0,0)" fill="rgb(255,255,255)" vector-effect="non-scaling-stroke" stroke-width="2" stroke="rgb(0,0,0)" stroke-linejoin="miter" stroke-linecap="square" stroke-miterlimit="3" style="mix-blend-mode:power;"/><rect x="779.638" y="2721.8" width="30.351" height="21.064" transform="matrix(1,0,0,1,0,0)" fill="rgb(255,255,255)" vector-effect="non-scaling-stroke" stroke-width="2" stroke="rgb(0,0,0)" stroke-linejoin="miter" stroke-linecap="square" stroke-miterlimit="3" style="mix-blend-mode:power;"/><rect x="779.638" y="2751.892" width="30.351" height="21.064" transform="matrix(1,0,0,1,0,0)" fill="rgb(255,255,255)" vector-effect="non-scaling-stroke" stroke-width="2" stroke="rgb(0,0,0)" stroke-linejoin="miter" stroke-linecap="square" stroke-miterlimit="3" style="mix-blend-mode:power;"/><rect x="846.999" y="2664.626" width="30.08" height="21.064" transform="matrix(1,0,0,1,0,0)" fill="rgb(255,255,255)" vector-effect="non-scaling-stroke" stroke-width="2" stroke="rgb(0,0,0)" stroke-linejoin="miter" stroke-linecap="square" stroke-miterlimit="3" style="mix-blend-mode:power;"/><rect x="846.999" y="2692.712" width="30.08" height="21.064" transform="matrix(1,0,0,1,0,0)" fill="rgb(255,255,255)" vector-effect="non-scaling-stroke" stroke-width="2" stroke="rgb(0,0,0)" stroke-linejoin="miter" stroke-linecap="square" stroke-miterlimit="3" style="mix-blend-mode:power;"/><rect x="846.999" y="2721.8" width="30.08" height="21.064" transform="matrix(1,0,0,1,0,0)" fill="rgb(255,255,255)" vector-effect="non-scaling-stroke" stroke-width="2" stroke="rgb(0,0,0)" stroke-linejoin="miter" stroke-linecap="square" stroke-miterlimit="3" style="mix-blend-mode:power;"/><rect x="847.27" y="2751.892" width="30.08" height="21.064" transform="matrix(1,0,0,1,0,0)" fill="rgb(255,255,255)" vector-effect="non-scaling-stroke" stroke-width="2" stroke="rgb(0,0,0)" stroke-linejoin="miter" stroke-linecap="square" stroke-miterlimit="3" style="mix-blend-mode:power;"/><rect x="779.638" y="2779.978" width="30.351" height="21.064" transform="matrix(1,0,0,1,0,0)" fill="rgb(255,255,255)" vector-effect="non-scaling-stroke" stroke-width="2" stroke="rgb(0,0,0)" stroke-linejoin="miter" stroke-linecap="square" stroke-miterlimit="3" style="mix-blend-mode:power;"/><rect x="906.958" y="2664.626" width="30.351" height="21.064" transform="matrix(1,0,0,1,0,0)" fill="rgb(255,255,255)" vector-effect="non-scaling-stroke" stroke-width="2" stroke="rgb(0,0,0)" stroke-linejoin="miter" stroke-linecap="square" stroke-miterlimit="3" style="mix-blend-mode:power;"/><rect x="906.958" y="2692.712" width="30.351" height="21.064" transform="matrix(1,0,0,1,0,0)" fill="rgb(255,255,255)" vector-effect="non-scaling-stroke" stroke-width="2" stroke="rgb(0,0,0)" stroke-linejoin="miter" stroke-linecap="square" stroke-miterlimit="3" style="mix-blend-mode:power;"/><rect x="906.958" y="2721.8" width="30.351" height="21.064" transform="matrix(1,0,0,1,0,0)" fill="rgb(255,255,255)" vector-effect="non-scaling-stroke" stroke-width="2" stroke="rgb(0,0,0)" stroke-linejoin="miter" stroke-linecap="square" stroke-miterlimit="3" style="mix-blend-mode:power;"/><rect x="906.958" y="2751.892" width="30.351" height="21.064" transform="matrix(1,0,0,1,0,0)" fill="rgb(255,255,255)" vector-effect="non-scaling-stroke" stroke-width="2" stroke="rgb(0,0,0)" stroke-linejoin="miter" stroke-linecap="square" stroke-miterlimit="3" style="mix-blend-mode:power;"/><rect x="906.958" y="2779.978" width="30.351" height="21.064" transform="matrix(1,0,0,1,0,0)" fill="rgb(255,255,255)" vector-effect="non-scaling-stroke" stroke-width="2" stroke="rgb(0,0,0)" stroke-linejoin="miter" stroke-linecap="square" stroke-miterlimit="3" style="mix-blend-mode:power;"/></g><g><path d=" M 778.652 2687.329 L 778.652 2663.639 L 811.1 2663.639 L 778.652 2687.329 L 778.652 2687.329 Z " fill="rgb(180,180,180)"/><path d=" M 778.652 2687.329 L 778.652 2687.408 L 811.1 2687.408 L 811.1 2663.684 L 778.652 2687.329 L 778.652 2687.329 Z " fill="rgb(162,160,160)"/><path d=" M 811.1 2663.684 L 811.1 2663.639 L 778.652 2687.329 L 811.1 2663.684 Z " fill="rgb(180,180,180)"/></g><g><path d=" M 778.652 2715.329 L 778.652 2691.639 L 811.1 2691.639 L 778.652 2715.329 L 778.652 2715.329 Z " fill="rgb(180,180,180)"/><path d=" M 778.652 2715.329 L 778.652 2715.408 L 811.1 2715.408 L 811.1 2691.684 L 778.652 2715.329 L 778.652 2715.329 Z " fill="rgb(162,160,160)"/><path d=" M 811.1 2691.684 L 811.1 2691.639 L 778.652 2715.329 L 811.1 2691.684 Z " fill="rgb(180,180,180)"/></g><g><path d=" M 778.652 2744.329 L 778.652 2720.639 L 811.1 2720.639 L 778.652 2744.329 L 778.652 2744.329 Z " fill="rgb(180,180,180)"/><path d=" M 778.652 2744.329 L 778.652 2744.408 L 811.1 2744.408 L 811.1 2720.684 L 778.652 2744.329 L 778.652 2744.329 Z " fill="rgb(162,160,160)"/><path d=" M 811.1 2720.684 L 811.1 2720.639 L 778.652 2744.329 L 811.1 2720.684 Z " fill="rgb(180,180,180)"/></g><g><path d=" M 778.652 2774.329 L 778.652 2750.639 L 811.1 2750.639 L 778.652 2774.329 L 778.652 2774.329 Z " fill="rgb(180,180,180)"/><path d=" M 778.652 2774.329 L 778.652 2774.408 L 811.1 2774.408 L 811.1 2750.684 L 778.652 2774.329 L 778.652 2774.329 Z " fill="rgb(162,160,160)"/><path d=" M 811.1 2750.684 L 811.1 2750.639 L 778.652 2774.329 L 811.1 2750.684 Z " fill="rgb(180,180,180)"/></g><g><path d=" M 845.652 2687.329 L 845.652 2663.639 L 878.1 2663.639 L 845.652 2687.329 L 845.652 2687.329 Z " fill="rgb(180,180,180)"/><path d=" M 845.652 2687.329 L 845.652 2687.408 L 878.1 2687.408 L 878.1 2663.684 L 845.652 2687.329 L 845.652 2687.329 Z " fill="rgb(162,160,160)"/><path d=" M 878.1 2663.684 L 878.1 2663.639 L 845.652 2687.329 L 878.1 2663.684 Z " fill="rgb(180,180,180)"/></g><g><path d=" M 845.652 2715.329 L 845.652 2691.639 L 878.1 2691.639 L 845.652 2715.329 L 845.652 2715.329 Z " fill="rgb(180,180,180)"/><path d=" M 845.652 2715.329 L 845.652 2715.408 L 878.1 2715.408 L 878.1 2691.684 L 845.652 2715.329 L 845.652 2715.329 Z " fill="rgb(162,160,160)"/><path d=" M 878.1 2691.684 L 878.1 2691.639 L 845.652 2715.329 L 878.1 2691.684 Z " fill="rgb(180,180,180)"/></g><g><path d=" M 845.652 2744.329 L 845.652 2720.639 L 878.1 2720.639 L 845.652 2744.329 L 845.652 2744.329 Z " fill="rgb(180,180,180)"/><path d=" M 845.652 2744.329 L 845.652 2744.408 L 878.1 2744.408 L 878.1 2720.684 L 845.652 2744.329 L 845.652 2744.329 Z " fill="rgb(162,160,160)"/><path d=" M 878.1 2720.684 L 878.1 2720.639 L 845.652 2744.329 L 878.1 2720.684 Z " fill="rgb(180,180,180)"/></g><g><path d=" M 845.652 2774.329 L 845.652 2750.639 L 878.1 2750.639 L 845.652 2774.329 L 845.652 2774.329 Z " fill="rgb(180,180,180)"/><path d=" M 845.652 2774.329 L 845.652 2774.408 L 878.1 2774.408 L 878.1 2750.684 L 845.652 2774.329 L 845.652 2774.329 Z " fill="rgb(162,160,160)"/><path d=" M 878.1 2750.684 L 878.1 2750.639 L 845.652 2774.329 L 878.1 2750.684 Z " fill="rgb(180,180,180)"/></g><g><path d=" M 778.652 2802.329 L 778.652 2778.639 L 811.1 2778.639 L 778.652 2802.329 L 778.652 2802.329 Z " fill="rgb(180,180,180)"/><path d=" M 778.652 2802.329 L 778.652 2802.408 L 811.1 2802.408 L 811.1 2778.684 L 778.652 2802.329 L 778.652 2802.329 Z " fill="rgb(162,160,160)"/><path d=" M 811.1 2778.684 L 811.1 2778.639 L 778.652 2802.329 L 811.1 2778.684 Z " fill="rgb(180,180,180)"/></g><g><path d=" M 906.652 2687.329 L 906.652 2663.639 L 939.1 2663.639 L 906.652 2687.329 L 906.652 2687.329 Z " fill="rgb(180,180,180)"/><path d=" M 906.652 2687.329 L 906.652 2687.408 L 939.1 2687.408 L 939.1 2663.684 L 906.652 2687.329 L 906.652 2687.329 Z " fill="rgb(162,160,160)"/><path d=" M 939.1 2663.684 L 939.1 2663.639 L 906.652 2687.329 L 939.1 2663.684 Z " fill="rgb(180,180,180)"/></g><g><path d=" M 906.652 2715.329 L 906.652 2691.639 L 939.1 2691.639 L 906.652 2715.329 L 906.652 2715.329 Z " fill="rgb(180,180,180)"/><path d=" M 906.652 2715.329 L 906.652 2715.408 L 939.1 2715.408 L 939.1 2691.684 L 906.652 2715.329 L 906.652 2715.329 Z " fill="rgb(162,160,160)"/><path d=" M 939.1 2691.684 L 939.1 2691.639 L 906.652 2715.329 L 939.1 2691.684 Z " fill="rgb(180,180,180)"/></g><g><path d=" M 906.652 2744.329 L 906.652 2720.639 L 939.1 2720.639 L 906.652 2744.329 L 906.652 2744.329 Z " fill="rgb(180,180,180)"/><path d=" M 906.652 2744.329 L 906.652 2744.408 L 939.1 2744.408 L 939.1 2720.684 L 906.652 2744.329 L 906.652 2744.329 Z " fill="rgb(162,160,160)"/><path d=" M 939.1 2720.684 L 939.1 2720.639 L 906.652 2744.329 L 939.1 2720.684 Z " fill="rgb(180,180,180)"/></g><g><path d=" M 906.652 2774.329 L 906.652 2750.639 L 939.1 2750.639 L 906.652 2774.329 L 906.652 2774.329 Z " fill="rgb(180,180,180)"/><path d=" M 906.652 2774.329 L 906.652 2774.408 L 939.1 2774.408 L 939.1 2750.684 L 906.652 2774.329 L 906.652 2774.329 Z " fill="rgb(162,160,160)"/><path d=" M 939.1 2750.684 L 939.1 2750.639 L 906.652 2774.329 L 939.1 2750.684 Z " fill="rgb(180,180,180)"/></g><g><path d=" M 906.652 2802.329 L 906.652 2778.639 L 939.1 2778.639 L 906.652 2802.329 L 906.652 2802.329 Z " fill="rgb(180,180,180)"/><path d=" M 906.652 2802.329 L 906.652 2802.408 L 939.1 2802.408 L 939.1 2778.684 L 906.652 2802.329 L 906.652 2802.329 Z " fill="rgb(162,160,160)"/><path d=" M 939.1 2778.684 L 939.1 2778.639 L 906.652 2802.329 L 939.1 2778.684 Z " fill="rgb(180,180,180)"/></g></g></g></svg>