<?xml version="1.0" standalone="no"?><!-- Generator: Gravit.io --><svg xmlns="http://www.w3.org/2000/svg" xmlns:xlink="http://www.w3.org/1999/xlink" style="isolation:isolate" viewBox="1111.322 710.115 40.075 40.075" width="40.075" height="40.075"><g><path id="line1" d="M 1131.338 710.115 L 1131.612 710.115 C 1133.471 710.115 1134.981 711.625 1134.981 713.484 L 1134.981 746.82 C 1134.981 748.679 1133.471 750.189 1131.612 750.189 L 1131.338 750.189 C 1129.478 750.189 1127.968 748.679 1127.968 746.82 L 1127.968 713.484 C 1127.968 711.625 1129.478 710.115 1131.338 710.115 Z" style="stroke:none;fill:#FFFFFF;stroke-miterlimit:10;"/><path id="line2" d="M 1151.397 730.267 L 1151.397 730.267 C 1151.397 732.202 1149.826 733.774 1147.89 733.774 L 1114.829 733.774 C 1112.894 733.774 1111.322 732.202 1111.322 730.267 L 1111.322 730.267 C 1111.322 728.332 1112.894 726.761 1114.829 726.761 L 1147.89 726.761 C 1149.826 726.761 1151.397 728.332 1151.397 730.267 Z" style="stroke:none;fill:#EBEBEB;stroke-miterlimit:10;"/></g></svg>