<?xml version="1.0" standalone="no"?><!-- Generator: Gravit.io --><svg xmlns="http://www.w3.org/2000/svg" xmlns:xlink="http://www.w3.org/1999/xlink" style="isolation:isolate" viewBox="1106.519 542.333 49.148 37.667" width="49.148" height="37.667"><g><path d="M 1110.959 542.333 L 1151.227 542.333 C 1153.677 542.333 1155.667 544.323 1155.667 546.773 L 1155.667 575.56 C 1155.667 578.011 1153.677 580 1151.227 580 L 1110.959 580 C 1108.508 580 1106.519 578.011 1106.519 575.56 L 1106.519 546.773 C 1106.519 544.323 1108.508 542.333 1110.959 542.333 Z" style="stroke:none;fill:#F7F7F7;stroke-miterlimit:10;"/><rect x="1114.25" y="549.518" width="32.333" height="1.96" transform="matrix(1,0,0,1,0,0)" fill="rgb(255,12,152)"/><rect x="1114.25" y="555.419" width="25.75" height="1.938" transform="matrix(1,0,0,1,0,0)" fill="rgb(255,12,152)"/><rect x="1114.75" y="561.694" width="22" height="1.977" transform="matrix(1,0,0,1,0,0)" fill="rgb(255,12,152)"/><rect x="1114" y="567.79" width="32.333" height="1.759" transform="matrix(1,0,0,1,0,0)" fill="rgb(255,12,152)"/></g></svg>