<?xml version="1.0" standalone="no"?><!-- Generator: Gravit.io --><svg xmlns="http://www.w3.org/2000/svg" xmlns:xlink="http://www.w3.org/1999/xlink" style="isolation:isolate" viewBox="403.354 1071.395 757.315 320.32" width="757.315" height="320.32"><g><g><path d=" M 1160.615 1272.174 L 1160.669 1272.1 L 1160.669 1140.167 L 831.978 1140.167 L 831.978 1140.167 L 441.8 1264.48 L 441.8 1274.193 L 1157.331 1274.193 L 1160.615 1272.174 L 1160.615 1272.174 Z " fill="rgb(44,89,42)"/><path d=" M 1160.378 1271.582 L 969.079 1271.582 L 969.079 1391.683 L 1019.123 1391.683 L 1160.378 1271.582 L 1160.378 1271.582 Z " fill="rgb(44,89,42)"/></g><rect x="403.354" y="1283.633" width="199.475" height="107.342" transform="matrix(1,0,0,1,0,0)" fill="rgb(187,186,186)"/><rect x="813.717" y="1284.373" width="199.475" height="107.342" transform="matrix(1,0,0,1,0,0)" fill="rgb(187,186,186)"/><rect x="603.149" y="1208.279" width="210.888" height="182.511" transform="matrix(1,0,0,1,0,0)" fill="rgb(136,135,135)"/><rect x="689.516" y="1304.22" width="42.197" height="86.767" transform="matrix(1,0,0,1,0,0)" fill="rgb(87,86,86)"/><rect x="847.666" y="1307.876" width="29.346" height="28.65" transform="matrix(1,0,0,1,0,0)" fill="rgb(235,235,235)" vector-effect="non-scaling-stroke" stroke-width="1" stroke="rgb(115,112,112)" stroke-linejoin="miter" stroke-linecap="square" stroke-miterlimit="3"/><rect x="899.836" y="1308.135" width="29.346" height="28.65" transform="matrix(1,0,0,1,0,0)" fill="rgb(235,235,235)" vector-effect="non-scaling-stroke" stroke-width="1" stroke="rgb(115,112,112)" stroke-linejoin="miter" stroke-linecap="square" stroke-miterlimit="3"/><rect x="950.472" y="1307.876" width="29.346" height="28.65" transform="matrix(1,0,0,1,0,0)" fill="rgb(235,235,235)" vector-effect="non-scaling-stroke" stroke-width="1" stroke="rgb(115,112,112)" stroke-linejoin="miter" stroke-linecap="square" stroke-miterlimit="3"/><rect x="542.411" y="1307.487" width="29.346" height="28.65" transform="matrix(1,0,0,1,0,0)" fill="rgb(235,235,235)" vector-effect="non-scaling-stroke" stroke-width="1" stroke="rgb(115,112,112)" stroke-linejoin="miter" stroke-linecap="square" stroke-miterlimit="3"/><rect x="488.706" y="1307.487" width="29.346" height="28.65" transform="matrix(1,0,0,1,0,0)" fill="rgb(235,235,235)" vector-effect="non-scaling-stroke" stroke-width="1" stroke="rgb(115,112,112)" stroke-linejoin="miter" stroke-linecap="square" stroke-miterlimit="3"/><rect x="430.398" y="1307.487" width="29.346" height="28.65" transform="matrix(1,0,0,1,0,0)" fill="rgb(235,235,235)" vector-effect="non-scaling-stroke" stroke-width="1" stroke="rgb(115,112,112)" stroke-linejoin="miter" stroke-linecap="square" stroke-miterlimit="3"/><rect x="847.666" y="1343.605" width="29.346" height="28.65" transform="matrix(1,0,0,1,0,0)" fill="rgb(235,235,235)" vector-effect="non-scaling-stroke" stroke-width="1" stroke="rgb(115,112,112)" stroke-linejoin="miter" stroke-linecap="square" stroke-miterlimit="3"/><rect x="899.836" y="1343.864" width="29.346" height="28.65" transform="matrix(1,0,0,1,0,0)" fill="rgb(235,235,235)" vector-effect="non-scaling-stroke" stroke-width="1" stroke="rgb(115,112,112)" stroke-linejoin="miter" stroke-linecap="square" stroke-miterlimit="3"/><rect x="950.472" y="1343.605" width="29.346" height="28.65" transform="matrix(1,0,0,1,0,0)" fill="rgb(235,235,235)" vector-effect="non-scaling-stroke" stroke-width="1" stroke="rgb(115,112,112)" stroke-linejoin="miter" stroke-linecap="square" stroke-miterlimit="3"/><rect x="542.411" y="1343.216" width="29.346" height="28.65" transform="matrix(1,0,0,1,0,0)" fill="rgb(235,235,235)" vector-effect="non-scaling-stroke" stroke-width="1" stroke="rgb(115,112,112)" stroke-linejoin="miter" stroke-linecap="square" stroke-miterlimit="3"/><rect x="488.706" y="1343.216" width="29.346" height="28.65" transform="matrix(1,0,0,1,0,0)" fill="rgb(235,235,235)" vector-effect="non-scaling-stroke" stroke-width="1" stroke="rgb(115,112,112)" stroke-linejoin="miter" stroke-linecap="square" stroke-miterlimit="3"/><rect x="430.398" y="1343.216" width="29.346" height="28.65" transform="matrix(1,0,0,1,0,0)" fill="rgb(235,235,235)" vector-effect="non-scaling-stroke" stroke-width="1" stroke="rgb(115,112,112)" stroke-linejoin="miter" stroke-linecap="square" stroke-miterlimit="3"/><g><path d=" M 443.88 1227.86 L 604.405 1227.86 L 604.405 1285.258 L 404.163 1285.258 L 404.163 1279.862 L 443.88 1227.86 L 443.88 1227.86 Z " fill="rgb(111,110,110)"/><path d=" M 974.776 1230.39 L 814.25 1230.39 L 814.25 1284.061 L 1014.492 1284.061 L 1014.492 1279.015 L 974.776 1230.39 L 974.776 1230.39 Z " fill="rgb(111,110,110)"/><path d=" M 815.59 1208.91 C 807.529 1157.879 762.587 1118.75 708.42 1118.75 C 655.008 1118.75 610.567 1156.795 601.688 1206.809 L 815.59 1208.91 L 815.59 1208.91 Z " fill="rgb(111,110,110)"/><path d=" M 705.341 1079.079 L 705.341 1119.736 L 710.944 1119.736 L 710.944 1079.101 L 710.944 1079.101 L 708.487 1071.395 L 708.282 1071.395 L 705.341 1079.079 L 705.341 1079.079 Z " fill="rgb(187,186,186)"/></g><g><rect x="602.949" y="1205.566" width="211.088" height="24.17" transform="matrix(1,0,0,1,0,0)" fill="rgb(234,234,234)"/><rect x="619.49" y="1228.626" width="23.016" height="162.35" transform="matrix(1,0,0,1,0,0)" fill="rgb(234,234,234)"/><rect x="775.3" y="1227.516" width="23.016" height="163.46" transform="matrix(1,0,0,1,0,0)" fill="rgb(234,234,234)"/><path d="M 626.542 1230.914 L 626.542 1230.914 C 627.306 1230.914 627.926 1231.682 627.926 1232.628 L 627.926 1383.997 C 627.926 1384.943 627.306 1385.711 626.542 1385.711 L 626.542 1385.711 C 625.777 1385.711 625.157 1384.943 625.157 1383.997 L 625.157 1232.628 C 625.157 1231.682 625.777 1230.914 626.542 1230.914 Z" style="stroke:none;fill:#BBBABA;stroke-miterlimit:10;"/><path d="M 634.598 1230.914 L 634.598 1230.914 C 635.362 1230.914 635.982 1231.682 635.982 1232.628 L 635.982 1383.997 C 635.982 1384.943 635.362 1385.711 634.598 1385.711 L 634.598 1385.711 C 633.833 1385.711 633.213 1384.943 633.213 1383.997 L 633.213 1232.628 C 633.213 1231.682 633.833 1230.914 634.598 1230.914 Z" style="stroke:none;fill:#BBBABA;stroke-miterlimit:10;"/><rect x="659.83" y="1228.626" width="23.016" height="162.35" transform="matrix(1,0,0,1,0,0)" fill="rgb(234,234,234)"/><path d="M 666.882 1230.914 L 666.882 1230.914 C 667.647 1230.914 668.267 1231.682 668.267 1232.628 L 668.267 1383.997 C 668.267 1384.943 667.647 1385.711 666.882 1385.711 L 666.882 1385.711 C 666.118 1385.711 665.498 1384.943 665.498 1383.997 L 665.498 1232.628 C 665.498 1231.682 666.118 1230.914 666.882 1230.914 Z" style="stroke:none;fill:#BBBABA;stroke-miterlimit:10;"/><path d="M 674.938 1230.914 L 674.938 1230.914 C 675.702 1230.914 676.323 1231.682 676.323 1232.628 L 676.323 1383.997 C 676.323 1384.943 675.702 1385.711 674.938 1385.711 L 674.938 1385.711 C 674.174 1385.711 673.554 1384.943 673.554 1383.997 L 673.554 1232.628 C 673.554 1231.682 674.174 1230.914 674.938 1230.914 Z" style="stroke:none;fill:#BBBABA;stroke-miterlimit:10;"/><rect x="735.469" y="1227.516" width="23.016" height="163.46" transform="matrix(1,0,0,1,0,0)" fill="rgb(234,234,234)"/><path d="M 742.521 1232.551 L 742.521 1232.551 C 743.285 1232.551 743.906 1233.319 743.906 1234.265 L 743.906 1385.634 C 743.906 1386.58 743.285 1387.348 742.521 1387.348 L 742.521 1387.348 C 741.757 1387.348 741.137 1386.58 741.137 1385.634 L 741.137 1234.265 C 741.137 1233.319 741.757 1232.551 742.521 1232.551 Z" style="stroke:none;fill:#BBBABA;stroke-miterlimit:10;"/><path d="M 750.577 1232.551 L 750.577 1232.551 C 751.341 1232.551 751.962 1233.319 751.962 1234.265 L 751.962 1385.634 C 751.962 1386.58 751.341 1387.348 750.577 1387.348 L 750.577 1387.348 C 749.813 1387.348 749.192 1386.58 749.192 1385.634 L 749.192 1234.265 C 749.192 1233.319 749.813 1232.551 750.577 1232.551 Z" style="stroke:none;fill:#BBBABA;stroke-miterlimit:10;"/><path d="M 790.447 1232.551 L 790.447 1232.551 C 791.211 1232.551 791.831 1233.319 791.831 1234.265 L 791.831 1385.634 C 791.831 1386.58 791.211 1387.348 790.447 1387.348 L 790.447 1387.348 C 789.682 1387.348 789.062 1386.58 789.062 1385.634 L 789.062 1234.265 C 789.062 1233.319 789.682 1232.551 790.447 1232.551 Z" style="stroke:none;fill:#BBBABA;stroke-miterlimit:10;"/><path d="M 782.391 1232.551 L 782.391 1232.551 C 783.155 1232.551 783.775 1233.319 783.775 1234.265 L 783.775 1385.634 C 783.775 1386.58 783.155 1387.348 782.391 1387.348 L 782.391 1387.348 C 781.626 1387.348 781.006 1386.58 781.006 1385.634 L 781.006 1234.265 C 781.006 1233.319 781.626 1232.551 782.391 1232.551 Z" style="stroke:none;fill:#BBBABA;stroke-miterlimit:10;"/></g><g transform="matrix(0.715,0,0,0.715,629.66,1204.715)"><text transform="matrix(1,0,0,1,0,27.637)" style="font-family:&quot;Average&quot;;font-weight:400;font-size:29px;font-style:normal;fill:#888787;stroke:none;">UNIVERSIDADE</text></g></g></svg>